<svg width="14" height="14" viewBox="0 0 14 14" fill="none" xmlns="http://www.w3.org/2000/svg">
<g clip-path="url(#clip0)">
<path d="M2.91663 3.20833C2.91663 2.66685 3.13173 2.14755 3.51462 1.76466C3.8975 1.38177 4.41681 1.16667 4.95829 1.16667H6.99996V5.25H4.95829C4.41681 5.25 3.8975 5.0349 3.51462 4.65201C3.13173 4.26912 2.91663 3.74982 2.91663 3.20833Z" stroke="#1A202C" stroke-width="1.5" stroke-linecap="round" stroke-linejoin="round"/>
<path d="M7 1.16667H9.04167C9.30978 1.16667 9.57527 1.21948 9.82298 1.32208C10.0707 1.42468 10.2958 1.57507 10.4853 1.76466C10.6749 1.95424 10.8253 2.17932 10.9279 2.42702C11.0305 2.67473 11.0833 2.94022 11.0833 3.20833C11.0833 3.47645 11.0305 3.74194 10.9279 3.98965C10.8253 4.23735 10.6749 4.46242 10.4853 4.65201C10.2958 4.8416 10.0707 4.99199 9.82298 5.09459C9.57527 5.19719 9.30978 5.25 9.04167 5.25H7V1.16667Z" stroke="#1A202C" stroke-width="1.5" stroke-linecap="round" stroke-linejoin="round"/>
<path d="M7 7.29167C7 7.02355 7.05281 6.75806 7.15541 6.51036C7.25802 6.26265 7.4084 6.03758 7.59799 5.84799C7.78758 5.6584 8.01265 5.50802 8.26036 5.40541C8.50806 5.30281 8.77355 5.25 9.04167 5.25C9.30978 5.25 9.57527 5.30281 9.82298 5.40541C10.0707 5.50802 10.2958 5.6584 10.4853 5.84799C10.6749 6.03758 10.8253 6.26265 10.9279 6.51036C11.0305 6.75806 11.0833 7.02355 11.0833 7.29167C11.0833 7.55978 11.0305 7.82527 10.9279 8.07298C10.8253 8.32069 10.6749 8.54576 10.4853 8.73534C10.2958 8.92493 10.0707 9.07532 9.82298 9.17792C9.57527 9.28052 9.30978 9.33333 9.04167 9.33333C8.77355 9.33333 8.50806 9.28052 8.26036 9.17792C8.01265 9.07532 7.78758 8.92493 7.59799 8.73534C7.4084 8.54576 7.25802 8.32069 7.15541 8.07298C7.05281 7.82527 7 7.55978 7 7.29167V7.29167Z" stroke="#1A202C" stroke-width="1.5" stroke-linecap="round" stroke-linejoin="round"/>
<path d="M2.91663 11.375C2.91663 10.8335 3.13173 10.3142 3.51462 9.93132C3.8975 9.54844 4.41681 9.33333 4.95829 9.33333H6.99996V11.375C6.99996 11.9165 6.78486 12.4358 6.40197 12.8187C6.01908 13.2016 5.49978 13.4167 4.95829 13.4167C4.41681 13.4167 3.8975 13.2016 3.51462 12.8187C3.13173 12.4358 2.91663 11.9165 2.91663 11.375Z" stroke="#1A202C" stroke-width="1.5" stroke-linecap="round" stroke-linejoin="round"/>
<path d="M2.91663 7.29167C2.91663 6.75018 3.13173 6.23088 3.51462 5.84799C3.8975 5.4651 4.41681 5.25 4.95829 5.25H6.99996V9.33333H4.95829C4.41681 9.33333 3.8975 9.11823 3.51462 8.73534C3.13173 8.35246 2.91663 7.83315 2.91663 7.29167Z" stroke="#1A202C" stroke-width="1.5" stroke-linecap="round" stroke-linejoin="round"/>
</g>
<defs>
<clipPath id="clip0">
<rect width="14" height="14" fill="white"/>
</clipPath>
</defs>
</svg>
