<svg width="14" height="14" viewBox="0 0 14 14" fill="none" xmlns="http://www.w3.org/2000/svg">
<g clip-path="url(#clip0)">
<path d="M9.33329 12.8333V10.5758C9.35517 10.2977 9.31759 10.0181 9.22305 9.75554C9.12851 9.49304 8.97917 9.25366 8.78496 9.05333C10.6166 8.84917 12.5416 8.155 12.5416 4.97C12.5415 4.15557 12.2282 3.37237 11.6666 2.7825C11.9325 2.06996 11.9137 1.28237 11.6141 0.583334C11.6141 0.583334 10.9258 0.379167 9.33329 1.44667C7.9963 1.08431 6.58695 1.08431 5.24996 1.44667C3.65746 0.379167 2.96913 0.583334 2.96913 0.583334C2.66951 1.28237 2.65071 2.06996 2.91663 2.7825C2.35087 3.37674 2.03726 4.16702 2.04163 4.9875C2.04163 8.14917 3.96663 8.84333 5.79829 9.07083C5.60637 9.26915 5.45836 9.50565 5.36389 9.76495C5.26942 10.0243 5.2306 10.3005 5.24996 10.5758V12.8333M5.24996 11.0833C2.33329 11.9583 2.33329 9.625 1.16663 9.33333L5.24996 11.0833Z" stroke="#1A202C" stroke-width="1.5" stroke-linecap="round" stroke-linejoin="round"/>
</g>
<defs>
<clipPath id="clip0">
<rect width="14" height="14" fill="white"/>
</clipPath>
</defs>
</svg>
