<svg width="16" height="15" viewBox="0 0 16 15" fill="none" xmlns="http://www.w3.org/2000/svg">
<path d="M7.99492 0.96875C5.9255 0.96875 3.10271 1.00111 2.52999 1.05202C1.88728 1.43765 0.615022 2.8975 0.602295 3.27677V3.91312C0.602295 4.71683 1.35504 5.42322 2.03657 5.42322C2.85301 5.42322 3.53424 4.7423 3.53424 3.93922C3.53424 4.7423 4.19621 5.42322 5.01202 5.42322C5.83482 5.42322 6.47115 4.74294 6.47115 3.93922C6.47115 4.7423 7.16466 5.42322 7.98746 5.42322H8.00113C8.82394 5.42322 9.51744 4.74294 9.51744 3.93922C9.51744 4.7423 10.1601 5.42322 10.9766 5.42322C11.793 5.42322 12.4556 4.74294 12.4556 3.93922C12.4556 4.7423 13.1368 5.42322 13.9533 5.42322C14.6348 5.42322 15.3863 4.71683 15.3863 3.91312V3.27677C15.3736 2.8975 14.1013 1.43765 13.4586 1.05202C11.4592 0.981388 10.0643 0.96875 7.99492 0.96875ZM6.43635 5.25916C5.76627 6.41095 4.08282 6.42477 3.42611 5.26661C3.02521 5.96151 2.11776 6.22982 1.72958 6.0981C1.61631 7.30653 1.53816 13.5105 2.36096 14.5509C4.77719 15.1141 11.2814 15.102 13.6289 14.5509C14.5802 13.5811 14.3672 7.21871 14.2603 6.0981C13.8721 6.22982 12.9645 5.96151 12.5699 5.26661C11.9062 6.42477 10.2229 6.41095 9.55348 5.25916C9.34667 5.6346 8.86481 6.12917 7.99492 6.12917C7.35666 6.15399 6.75517 5.8096 6.43635 5.25916ZM5.08038 6.69592C5.58946 6.69592 6.05409 6.69622 6.61408 7.31984C7.5368 7.22439 8.45304 7.22439 9.37575 7.31984C9.94211 6.70258 10.4004 6.70213 10.9095 6.70213C12.5513 6.70213 12.9463 9.12654 13.5381 11.2138C14.0727 13.1546 13.3588 13.2061 12.4742 13.2061C11.157 13.1552 10.426 12.2008 10.426 11.2399C9.19782 11.4435 7.23746 11.5199 5.56385 11.2399C5.56385 12.2008 4.83284 13.1552 3.5156 13.2061C2.63107 13.2061 1.91716 13.1546 2.45169 11.2138C3.0435 9.11381 3.43859 6.70213 5.08038 6.70213V6.69592ZM7.99492 8.52668C7.99492 8.52668 6.91694 9.52093 6.72221 9.86774L7.42692 9.84164V10.4569C7.42692 10.4938 7.94783 10.4618 7.99492 10.4618C8.27937 10.4727 8.56291 10.483 8.56291 10.4569V9.84164L9.26762 9.86774C9.0729 9.52029 7.99492 8.52668 7.99492 8.52668Z" fill="#1A202C"/>
</svg>
