<svg width="14" height="14" viewBox="0 0 14 14" fill="none" xmlns="http://www.w3.org/2000/svg">
<path d="M5.83337 7.58332C6.08389 7.91823 6.4035 8.19535 6.77053 8.39587C7.13756 8.5964 7.54342 8.71564 7.96059 8.74552C8.37775 8.7754 8.79647 8.7152 9.18833 8.56903C9.58019 8.42286 9.93602 8.19412 10.2317 7.89832L11.9817 6.14832C12.513 5.59824 12.807 4.86148 12.8003 4.09674C12.7937 3.332 12.487 2.60046 11.9462 2.05969C11.4054 1.51891 10.6739 1.21217 9.90913 1.20553C9.14439 1.19888 8.40763 1.49286 7.85754 2.02416L6.85421 3.02166" stroke="#1A202C" stroke-width="1.5" stroke-linecap="round" stroke-linejoin="round"/>
<path d="M8.16666 6.41667C7.91615 6.08177 7.59654 5.80465 7.22951 5.60413C6.86248 5.4036 6.45661 5.28436 6.03945 5.25448C5.62228 5.2246 5.20357 5.28479 4.81171 5.43097C4.41985 5.57714 4.06401 5.80588 3.76833 6.10167L2.01833 7.85167C1.48703 8.40176 1.19305 9.13852 1.1997 9.90326C1.20634 10.668 1.51308 11.3995 2.05386 11.9403C2.59463 12.4811 3.32617 12.7878 4.09091 12.7945C4.85565 12.8011 5.5924 12.5071 6.14249 11.9758L7.13999 10.9783" stroke="#1A202C" stroke-width="1.5" stroke-linecap="round" stroke-linejoin="round"/>
</svg>
