<svg width="587" height="1040" viewBox="0 0 587 1040" fill="none" xmlns="http://www.w3.org/2000/svg">
<line x1="1368.91" y1="103.382" x2="520.383" y2="951.91" stroke="#FF4500" stroke-width="2"/>
<line x1="1383.05" y1="117.525" x2="534.525" y2="966.053" stroke="#FF4500" stroke-width="2"/>
<line x1="1397.19" y1="131.667" x2="548.667" y2="980.195" stroke="#FF4500" stroke-width="2"/>
<line x1="1411.34" y1="145.809" x2="562.809" y2="994.337" stroke="#FF4500" stroke-width="2"/>
<line x1="1425.48" y1="159.951" x2="576.951" y2="1008.48" stroke="#FF4500" stroke-width="2"/>
<line x1="987.073" y1="-278.455" x2="138.545" y2="570.073" stroke="#FF4500" stroke-width="2"/>
<line x1="1001.22" y1="-264.313" x2="152.687" y2="584.215" stroke="#FF4500" stroke-width="2"/>
<line x1="1015.36" y1="-250.171" x2="166.829" y2="598.357" stroke="#FF4500" stroke-width="2"/>
<line x1="1029.5" y1="-236.029" x2="180.971" y2="612.499" stroke="#FF4500" stroke-width="2"/>
<line x1="1043.64" y1="-221.887" x2="195.113" y2="626.641" stroke="#FF4500" stroke-width="2"/>
<line x1="1057.78" y1="-207.745" x2="209.256" y2="640.784" stroke="#FF4500" stroke-width="2"/>
<line x1="1071.93" y1="-193.602" x2="223.398" y2="654.926" stroke="#FF4500" stroke-width="2"/>
<line x1="1086.07" y1="-179.46" x2="237.54" y2="669.068" stroke="#FF4500" stroke-width="2"/>
<line x1="1100.21" y1="-165.318" x2="251.682" y2="683.21" stroke="#FF4500" stroke-width="2"/>
<line x1="1114.35" y1="-151.176" x2="265.824" y2="697.352" stroke="#FF4500" stroke-width="2"/>
<line x1="1128.49" y1="-137.034" x2="279.966" y2="711.494" stroke="#FF4500" stroke-width="2"/>
<line x1="1142.64" y1="-122.892" x2="294.108" y2="725.636" stroke="#FF4500" stroke-width="2"/>
<line x1="1156.78" y1="-108.75" x2="308.25" y2="739.778" stroke="#FF4500" stroke-width="2"/>
<line x1="1170.92" y1="-94.6075" x2="322.392" y2="753.921" stroke="#FF4500" stroke-width="2"/>
<line x1="1185.06" y1="-80.4653" x2="336.534" y2="768.063" stroke="#FF4500" stroke-width="2"/>
<line x1="1199.21" y1="-66.3232" x2="350.677" y2="782.205" stroke="#FF4500" stroke-width="2"/>
<line x1="1213.35" y1="-52.1811" x2="364.819" y2="796.347" stroke="#FF4500" stroke-width="2"/>
<line x1="1227.49" y1="-38.0389" x2="378.961" y2="810.489" stroke="#FF4500" stroke-width="2"/>
<line x1="1241.63" y1="-23.8968" x2="393.103" y2="824.631" stroke="#FF4500" stroke-width="2"/>
<line x1="1255.77" y1="-9.75469" x2="407.245" y2="838.773" stroke="#FF4500" stroke-width="2"/>
<line x1="1269.92" y1="4.38747" x2="421.387" y2="852.916" stroke="#FF4500" stroke-width="2"/>
<line x1="1284.06" y1="18.5296" x2="435.53" y2="867.058" stroke="#FF4500" stroke-width="2"/>
<line x1="1298.2" y1="32.6717" x2="449.672" y2="881.2" stroke="#FF4500" stroke-width="2"/>
<line x1="1312.34" y1="46.8139" x2="463.814" y2="895.342" stroke="#FF4500" stroke-width="2"/>
<line x1="1326.48" y1="60.956" x2="477.956" y2="909.484" stroke="#FF4500" stroke-width="2"/>
<line x1="1340.63" y1="75.0982" x2="492.098" y2="923.626" stroke="#FF4500" stroke-width="2"/>
<line x1="1354.77" y1="89.2402" x2="506.24" y2="937.768" stroke="#FF4500" stroke-width="2"/>
<line x1="605.235" y1="-660.293" x2="-243.293" y2="188.235" stroke="#FF4500" stroke-width="2"/>
<line x1="619.378" y1="-646.151" x2="-229.151" y2="202.377" stroke="#FF4500" stroke-width="2"/>
<line x1="633.52" y1="-632.009" x2="-215.009" y2="216.519" stroke="#FF4500" stroke-width="2"/>
<line x1="647.662" y1="-617.866" x2="-200.867" y2="230.662" stroke="#FF4500" stroke-width="2"/>
<line x1="661.804" y1="-603.724" x2="-186.724" y2="244.804" stroke="#FF4500" stroke-width="2"/>
<line x1="675.946" y1="-589.582" x2="-172.582" y2="258.946" stroke="#FF4500" stroke-width="2"/>
<line x1="690.088" y1="-575.44" x2="-158.44" y2="273.088" stroke="#FF4500" stroke-width="2"/>
<line x1="704.231" y1="-561.298" x2="-144.298" y2="287.23" stroke="#FF4500" stroke-width="2"/>
<line x1="718.373" y1="-547.156" x2="-130.156" y2="301.372" stroke="#FF4500" stroke-width="2"/>
<line x1="732.515" y1="-533.014" x2="-116.013" y2="315.514" stroke="#FF4500" stroke-width="2"/>
<line x1="746.657" y1="-518.872" x2="-101.871" y2="329.657" stroke="#FF4500" stroke-width="2"/>
<line x1="760.799" y1="-504.729" x2="-87.7293" y2="343.799" stroke="#FF4500" stroke-width="2"/>
<line x1="774.941" y1="-490.587" x2="-73.5872" y2="357.941" stroke="#FF4500" stroke-width="2"/>
<line x1="789.083" y1="-476.445" x2="-59.4451" y2="372.083" stroke="#FF4500" stroke-width="2"/>
<line x1="803.225" y1="-462.303" x2="-45.303" y2="386.225" stroke="#FF4500" stroke-width="2"/>
<line x1="817.368" y1="-448.161" x2="-31.1604" y2="400.367" stroke="#FF4500" stroke-width="2"/>
<line x1="831.51" y1="-434.019" x2="-17.0184" y2="414.509" stroke="#FF4500" stroke-width="2"/>
<line x1="845.652" y1="-419.877" x2="-2.87626" y2="428.651" stroke="#FF4500" stroke-width="2"/>
<line x1="859.794" y1="-405.734" x2="11.2658" y2="442.794" stroke="#FF4500" stroke-width="2"/>
<line x1="873.936" y1="-391.592" x2="25.4079" y2="456.936" stroke="#FF4500" stroke-width="2"/>
<line x1="888.078" y1="-377.45" x2="39.55" y2="471.078" stroke="#FF4500" stroke-width="2"/>
<line x1="902.22" y1="-363.308" x2="53.6921" y2="485.22" stroke="#FF4500" stroke-width="2"/>
<line x1="916.362" y1="-349.166" x2="67.8342" y2="499.362" stroke="#FF4500" stroke-width="2"/>
<line x1="930.504" y1="-335.024" x2="81.9763" y2="513.504" stroke="#FF4500" stroke-width="2"/>
<line x1="944.647" y1="-320.882" x2="96.1189" y2="527.646" stroke="#FF4500" stroke-width="2"/>
<line x1="958.789" y1="-306.74" x2="110.261" y2="541.789" stroke="#FF4500" stroke-width="2"/>
<line x1="972.931" y1="-292.597" x2="124.403" y2="555.931" stroke="#FF4500" stroke-width="2"/>
</svg>
